#!OML:ASF F:\VICON\USERDATA\INSTALL\Justin_Nancy\Justin_Nancy.ASF
:FULLY-SPECIFIED
:DEGREES
300
root 3.493 17.4158 11.6259 -2.64643 38.9383 -5.39984
lowerback 5.4472 0.40286 3.57604
upperback -0.125924 0.903788 3.41228
thorax -3.18942 0.430296 1.44185
lowerneck -14.0084 -3.36277 -9.04479
upperneck 23.3949 -3.09679 3.00471
head 9.95749 -1.84049 2.18767
rclavicle 4.21423e-014 -6.36111e-015
rhumerus -28.6103 -9.81116 -78.1862
rradius 35.8239
rwrist 4.85035
rhand -15.8872 13.4599
rfingers 7.12502
rthumb 10.309 -16.2675
lclavicle 4.21423e-014 -6.36111e-015
lhumerus -34.5218 11.9387 85.1778
lradius 23.9912
lwrist -14.3212
lhand -12.8735 20.4738
lfingers 7.12502
lthumb 13.2151 50.035
rfemur 2.8723 2.64768 30.8482
rtibia 16.8034
rfoot -14.4557 -0.919148
rtoes 8.13505
lfemur -31.2287 1.49858 -17.5774
ltibia 37.0084
lfoot -12.1221 4.34883
ltoes -6.16137
301
root 3.58615 17.4093 11.7496 -2.85593 38.6943 -6.01971
lowerback 5.30014 0.492519 4.0984
upperback -0.174282 1.05231 3.45592
thorax -3.14897 0.49687 1.18431
lowerneck -13.9032 -3.35556 -8.85057
upperneck 23.3683 -3.12687 2.93448
head 9.92428 -1.84525 2.12744
rclavicle 8.32659e-014 3.18055e-014
rhumerus -28.1972 -9.29372 -78.4359
rradius 35.5764
rwrist 5.045
rhand -16.6994 14.0624
rfingers 7.12502
rthumb 9.52534 -15.7023
lclavicle 8.32659e-014 3.18055e-014
lhumerus -34.8321 10.9604 85.4162
lradius 24.1766
lwrist -12.9964
lhand -12.9591 21.6134
lfingers 7.12502
lthumb 13.1326 51.1799
rfemur 3.68393 2.68879 31.4702
rtibia 15.9344
rfoot -14.2719 -1.11269
rtoes 6.84737
lfemur -31.3218 0.911465 -16.7649
ltibia 34.8794
lfoot -12.7862 5.10466
ltoes -3.92482
302
root 3.68369 17.4095 11.8721 -2.97157 38.5707 -6.15462
lowerback 5.2674 0.414166 4.07577
upperback -0.10887 0.943274 3.5136
thorax -3.06516 0.44525 1.26546
lowerneck -13.8303 -3.23471 -8.67706
upperneck 23.2266 -2.96902 2.77889
head 9.84345 -1.77337 2.06366
rclavicle -1.76198e-013 -3.73715e-014
rhumerus -27.8587 -8.6772 -78.7102
rradius 35.8839
rwrist 5.13853
rhand -16.9462 14.0185
rfingers 7.12502
rthumb 9.28729 -15.757
lclavicle -1.76198e-013 -3.73715e-014
lhumerus -35.0564 11.2251 85.2168
lradius 24.083
lwrist -12.8443
lhand -12.8474 19.9359
lfingers 7.12502
lthumb 13.2403 49.4954
rfemur 4.6567 2.4182 31.6441
rtibia 15.2676
rfoot -14.2647 -1.25409
rtoes 4.97613
lfemur -31.122 0.428938 -16.4403
ltibia 32.7113
lfoot -13.3665 5.49278
ltoes -2.55041
303
root 3.78452 17.3997 11.9959 -2.70922 38.5063 -5.68398
lowerback 5.24786 0.444156 3.66096
upperback -0.068866 0.948004 3.39201
thorax -3.01654 0.452805 1.37122
lowerneck -14.0643 -3.22474 -8.84247
upperneck 23.4502 -2.95282 3.02149
head 9.97297 -1.7549 2.17891
rclavicle -4.22666e-014 -2.38542e-015
rhumerus -27.6922 -8.57149 -78.8325
rradius 36.4089
rwrist 4.76055
rhand -16.4324 13.5873
rfingers 7.12502
rthumb 9.78302 -16.1654
lclavicle -4.22666e-014 -2.38542e-015
lhumerus -35.0226 13.7692 83.8382
lradius 22.9063
lwrist -15.9411
lhand -11.6202 17.5008
lfingers 7.12502
lthumb 14.423 46.9796
rfemur 5.51742 2.38021 31.2855
rtibia 14.8707
rfoot -14.4161 -1.20662
rtoes 5.99899
lfemur -30.9416 0.135497 -16.7751
ltibia 30.5515
lfoot -13.463 5.79766
ltoes -2.53724
304
root 3.88619 17.379 12.1127 -2.24559 38.4836 -5.1836
lowerback 5.11275 0.538385 3.32693
upperback -0.0949426 1.0398 3.25542
thorax -2.97005 0.50181 1.41082
lowerneck -14.4674 -3.36762 -9.36587
upperneck 23.9417 -3.1171 3.55151
head 10.2571 -1.82079 2.43496
rclavicle 3.19049e-014 -5.56597e-015
rhumerus -27.4817 -8.38199 -78.8817
rradius 36.8169
rwrist 4.12085
rhand -16.1375 13.1263
rfingers 7.12502
rthumb 10.0675 -16.6129
lclavicle 3.19049e-014 -5.56597e-015
lhumerus -34.8143 14.6369 83.6969
lradius 22.2649
lwrist -16.3027
lhand -12.0757 22.8801
lfingers 7.12502
lthumb 13.984 52.3897
rfemur 6.06282 2.21032 30.8341
rtibia 14.635
rfoot -14.5549 -1.02704
rtoes 6.98897
lfemur -31.0155 -0.600232 -17.048
ltibia 28.4859
lfoot -13.3367 6.27113
ltoes -2.23178
305
root 3.98852 17.3685 12.2185 -1.83808 38.3846 -5.00093
lowerback 4.82488 0.59893 3.1989
upperback -0.0726925 1.09626 3.28073
thorax -2.78808 0.533729 1.50727
lowerneck -14.4957 -3.43148 -9.33396
upperneck 23.8598 -3.1852 3.44486
head 10.2361 -1.86039 2.38094
rclavicle 1.33683e-014 -3.57812e-014
rhumerus -26.8644 -7.95216 -78.8559
rradius 36.8337
rwrist 3.92552
rhand -15.937 12.6887
rfingers 7.12502
rthumb 10.261 -17.0411
lclavicle 1.33683e-014 -3.57812e-014
lhumerus -34.8129 14.7154 83.8785
lradius 22.1069
lwrist -16.1399
lhand -12.6294 25.0597
lfingers 7.12502
lthumb 13.4504 54.6054
rfemur 6.39224 1.94361 30.5833
rtibia 14.4795
rfoot -14.644 -0.880275
rtoes 6.07142
lfemur -31.2184 -2.03313 -16.7332
ltibia 26.6317
lfoot -13.4021 7.15492
ltoes 0.14887
306
root 4.09007 17.3654 12.3283 -1.71774 37.9794 -5.15387
lowerback 4.6627 0.750421 3.33344
upperback -0.0551498 1.29833 3.34923
thorax -2.67837 0.63447 1.49064
lowerneck -14.4403 -3.40322 -9.16666
upperneck 23.7118 -3.16166 3.31914
head 10.1646 -1.84736 2.3102
rclavicle 4.96962e-016 -3.4191e-014
rhumerus -26.3077 -7.79559 -78.7667
rradius 36.7784
rwrist 3.74335
rhand -15.4951 12.8115
rfingers 7.12502
rthumb 10.6872 -16.8967
lclavicle 4.96962e-016 -3.4191e-014
lhumerus -35.0873 13.5642 84.44
lradius 22.555
lwrist -14.8621
lhand -12.7922 25.1922
lfingers 7.12502
lthumb 13.2935 54.7482
rfemur 6.81061 2.1089 30.6479
rtibia 14.2805
rfoot -14.6095 -0.675197
rtoes 5.2092
lfemur -31.3467 -3.6737 -15.8262
ltibia 25.1459
lfoot -14.0026 8.52864
ltoes 3.0275
307
root 4.19338 17.3562 12.446 -1.59808 37.7284 -5.16755
lowerback 4.59195 0.821997 3.39435
upperback -0.108545 1.39367 3.30594
thorax -2.69142 0.680214 1.4061
lowerneck -14.5968 -3.30411 -9.22266
upperneck 24.0102 -3.05559 3.56604
head 10.2986 -1.77765 2.42444
rclavicle -2.95692e-014 -1.11319e-014
rhumerus -26.0663 -7.60299 -78.8399
rradius 36.7708
rwrist 3.57859
rhand -15.122 13.185
rfingers 7.12502
rthumb 11.0471 -16.5043
lclavicle -2.95692e-014 -1.11319e-014
lhumerus -35.4015 13.089 84.6314
lradius 22.8395
lwrist -14.3046
lhand -12.6956 25.8887
lfingers 7.12502
lthumb 13.3866 55.4387
rfemur 7.42925 2.13469 30.5897
rtibia 13.9146
rfoot -14.6079 -0.48014
rtoes 3.57354
lfemur -31.5644 -4.93596 -15.2149
ltibia 24.0942
lfoot -14.6935 9.7967
ltoes 3.43968
308
root 4.29911 17.3438 12.5596 -1.46861 37.7112 -5.16771
lowerback 4.52287 0.815034 3.41111
upperback -0.173844 1.38573 3.34084
thorax -2.72058 0.675818 1.43399
lowerneck -14.6557 -3.24966 -9.29849
upperneck 24.1528 -2.9633 3.60771
head 10.3573 -1.7385 2.46599
rclavicle -2.36554e-014 6.36111e-015
rhumerus -25.781 -6.99366 -78.9095
rradius 36.6408
rwrist 3.26417
rhand -15.4145 13.0174
rfingers 7.12502
rthumb 10.765 -16.6867
lclavicle -2.36554e-014 6.36111e-015
lhumerus -35.6633 13.383 84.6139
lradius 22.8387
lwrist -14.3814
lhand -12.4126 25.9939
lfingers 7.12502
lthumb 13.6593 55.5256
rfemur 8.13065 2.03622 30.54
rtibia 13.4511
rfoot -14.5917 -0.446134
rtoes 1.14013
lfemur -31.9059 -5.98542 -14.7772
ltibia 23.4171
lfoot -15.5112 10.7167
ltoes 2.908
